<svg xmlns="http://www.w3.org/2000/svg" fill="none" viewBox="0 0 348 348"><path stroke="#000" stroke-width="2" d="M5 6h337v337H5z"/><path stroke="#000" stroke-width="2" d="M283 41c0-9 7-16 15-16 4 0 8 2 11 5s5 7 5 11c0 8-7 15-16 15-8 0-15-7-15-15z"/><rect width="55.8" height="57.2" x="75.1" y="267.4" ry="2.1" style="opacity:1;fill:none;stroke:#000;stroke-width:.947202"/><rect width="58" height="57.2" x="140.7" y="267.9" ry="1.1" style="opacity:1;fill:none;stroke:#000;stroke-width:.925025"/><rect width="57.7" height="57.2" x="210.2" y="267.9" ry="1.1" style="opacity:1;fill:none;stroke:#000;stroke-width:.919571"/><rect width="56.2" height="57.2" x="277.1" y="268.3" ry="1.2" style="opacity:1;fill:none;stroke:#000"/><rect width="54.8" height="56.1" x="10.2" y="267.9" ry="1.2" style="opacity:1;fill:none;stroke:#000;stroke-width:1.09638"/><rect width="57.6" height="55.8" x="32.7" y="197.3" ry="1.1" style="opacity:1;fill:none;stroke:#000"/><rect width="137.8" height="66.4" x="106" y="191.3" ry="1.1" style="opacity:1;fill:none;stroke:#000"/><rect width="59.5" height="59.9" x="261.9" y="195.5" ry="1.1" style="opacity:1;fill:none;stroke:#000"/><rect width="313" height="113.9" x="16.1" y="64.5" ry="1.1" style="opacity:1;fill:none;stroke:#000"/><rect width="34.1" height="30.9" x="157.7" y="22.1" ry="1.1" style="opacity:1;fill:none;stroke:#000"/><path d="m48 25 5-13 2 13-2-3zm11 3 13 5-13 6 5-5zm-3 15-4 12-5-13 5 5zM43 29l-11 5 9 4-3-4z" style="fill:none;stroke:#000;stroke-width:1px;stroke-linecap:butt;stroke-linejoin:miter;stroke-opacity:1"/></svg>